<svg xmlns="http://www.w3.org/2000/svg" width="48" height="48" viewBox="0 0 48 48" fill="none">
<g clip-path="url(#clip0_411_4483)">
<path d="M45.6597 13.646C45.1642 12.6092 44.5874 11.5979 43.9343 10.6271C43.6776 10.2434 43.4057 9.86733 43.1237 9.49632C43.0957 9.46074 43.0703 9.42263 43.0423 9.38705C42.623 8.8407 42.1733 8.3096 41.7006 7.7912C41.4643 7.53454 41.2229 7.27789 40.9738 7.02885C40.2242 6.27921 39.4364 5.59056 38.6156 4.95781C34.3185 1.6543 29.16 0 24.0014 0C17.8594 0 11.7174 2.34295 7.03154 7.02885C5.22985 8.83054 3.77631 10.8457 2.66836 12.9955C1.58583 15.0945 0.833645 17.318 0.409271 19.5924C0.137367 21.0484 0.00268555 22.5249 0.00268555 24.0013C0.00268555 29.1598 1.65698 34.3184 4.96303 38.6155C5.59324 39.4337 6.2819 40.2215 7.03408 40.9737C7.78372 41.7233 8.57148 42.4145 9.39228 43.0447C9.42785 43.0727 9.46597 43.0981 9.50155 43.1261C15.0108 47.3139 21.9126 48.8055 28.4154 47.596L21.2493 40.4299L20.9851 40.1656L16.6295 35.81L14.4162 33.5967L12.2028 31.3833L5.03673 24.2173L2.41679 21.5973L6.84349 17.1706L7.29582 17.623L11.4659 21.793L21.2519 31.579L22.1718 32.4989C22.1387 31.7569 22.1387 31.0149 22.1718 30.2729C22.2531 28.5017 22.5326 26.7356 23.0027 25.0127C24.0675 21.1298 26.1233 17.4629 29.1752 14.4135L24.0116 9.24729H38.7681V24.0038L38.2243 23.46L33.6045 18.8402C32.1357 20.309 30.9794 21.9709 30.1358 23.7446C26.9898 30.3364 28.1461 38.4681 33.6045 43.9291C34.0924 44.417 34.6006 44.8667 35.1266 45.286C35.2588 45.2174 35.3884 45.1463 35.5205 45.0751C37.4823 44.0028 39.3246 42.6381 40.984 40.9762C48.3762 33.5865 49.9365 22.5731 45.6699 13.6511" fill="white"/>
</g>
<defs>
<clipPath id="clip0_411_4483">
<rect width="48" height="48" fill="white"/>
</clipPath>
</defs>
</svg>