<?xml version="1.0" encoding="UTF-8"?>
<svg id="Camada_1" data-name="Camada 1" xmlns="http://www.w3.org/2000/svg" version="1.1" xmlns:xlink="http://www.w3.org/1999/xlink" viewBox="0 0 858.17 407.26">
  <defs>
    <style>
      .cls-1 {
        fill: #20c6ed;
      }

      .cls-1, .cls-2, .cls-3, .cls-4, .cls-5, .cls-6, .cls-7, .cls-8, .cls-9 {
        stroke-width: 0px;
      }

      .cls-2 {
        fill: url(#Gradiente_sem_nome_2);
      }

      .cls-3 {
        fill: #000;
      }

      .cls-4 {
        fill: #c59b6c;
      }

      .cls-10 {
        clip-path: url(#clippath-2);
      }

      .cls-5 {
        fill: none;
      }

      .cls-11 {
        clip-path: url(#clippath-1);
      }

      .cls-6 {
        fill: #554595;
      }

      .cls-12 {
        clip-path: url(#clippath);
      }

      .cls-7 {
        fill: url(#Gradiente_sem_nome);
      }

      .cls-13 {
        clip-path: url(#clippath-3);
      }

      .cls-8 {
        fill: url(#Gradiente_sem_nome_4);
      }

      .cls-14 {
        mask: url(#mask-1);
      }

      .cls-15 {
        mask: url(#mask);
      }

      .cls-9 {
        fill: url(#Gradiente_sem_nome_3);
      }
    </style>
    <clipPath id="clippath">
      <rect class="cls-5" width="858.17" height="407.26"/>
    </clipPath>
    <clipPath id="clippath-1">
      <rect class="cls-5" width="858.17" height="407.26"/>
    </clipPath>
    <clipPath id="clippath-2">
      <polygon class="cls-5" points="257.65 149.01 247.73 149.01 246.97 149.01 246.97 154.44 246.97 188.9 265.15 207.08 265.15 172.62 265.15 166.43 265.15 159.28 265.15 149.01 257.65 149.01"/>
    </clipPath>
    <linearGradient id="Gradiente_sem_nome_2" data-name="Gradiente sem nome 2" x1="0" y1="407.26" x2="1" y2="407.26" gradientTransform="translate(23906.85 207.08) rotate(-90) scale(58.07 -58.07)" gradientUnits="userSpaceOnUse">
      <stop offset="0" stop-color="#000"/>
      <stop offset="1" stop-color="gray"/>
    </linearGradient>
    <mask id="mask" x="246.97" y="149.01" width="18.18" height="58.07" maskUnits="userSpaceOnUse">
      <rect class="cls-2" x="246.97" y="149.01" width="18.18" height="58.07"/>
    </mask>
    <linearGradient id="Gradiente_sem_nome" data-name="Gradiente sem nome" x1="0" y1="407.26" x2="1" y2="407.26" gradientTransform="translate(23906.85 207.08) rotate(-90) scale(58.07 -58.07)" gradientUnits="userSpaceOnUse">
      <stop offset="0" stop-color="#2c19b2"/>
      <stop offset="1" stop-color="#2c19b2"/>
    </linearGradient>
    <clipPath id="clippath-3">
      <path class="cls-5" d="M212.99,187.87c-12.38,25.94-7.83,57.94,13.65,79.43,1.92,1.91,3.92,3.69,5.99,5.34.52-.27,1.03-.54,1.55-.83-15.96-26.8-12.41-61.99,10.65-85.05l-18.18-18.19c-5.78,5.78-10.33,12.32-13.65,19.3"/>
    </clipPath>
    <linearGradient id="Gradiente_sem_nome_4" data-name="Gradiente sem nome 4" x1="0" y1="407.28" x2="1" y2="407.28" gradientTransform="translate(42605.61 272.64) rotate(-90) scale(104.06 -104.06)" gradientUnits="userSpaceOnUse">
      <stop offset="0" stop-color="#000"/>
      <stop offset="1" stop-color="gray"/>
    </linearGradient>
    <mask id="mask-1" x="200.61" y="168.57" width="44.22" height="104.06" maskUnits="userSpaceOnUse">
      <rect class="cls-8" x="200.61" y="168.57" width="44.22" height="104.06"/>
    </mask>
    <linearGradient id="Gradiente_sem_nome_3" data-name="Gradiente sem nome 3" x1="0" y1="407.28" x2="1" y2="407.28" gradientTransform="translate(42605.61 272.64) rotate(-90) scale(104.06 -104.06)" gradientUnits="userSpaceOnUse">
      <stop offset="0" stop-color="#2c19b2"/>
      <stop offset="1" stop-color="#2c19b2"/>
    </linearGradient>
  </defs>
  <g class="cls-12">
    <g class="cls-11">
      <path class="cls-3" d="M411.83,304.53l4.6-.93c1.27,3.17,4.18,4.94,8.06,4.94,4.22,0,6.63-1.69,6.63-4.6,0-7.22-17.98-2.19-17.98-13.97,0-5.11,4.31-8.61,10.6-8.61s10.38,2.74,11.95,7.85l-4.47.89c-1.31-2.91-3.67-4.39-7.35-4.39s-5.99,1.6-5.99,4.26c0,7.6,18.07,2.03,18.07,13.97,0,5.36-4.48,8.86-11.4,8.86-6.38,0-11.14-3.04-12.71-8.27"/>
      <path class="cls-3" d="M447.67,297.14c0-10.89,6.8-15.66,14.44-15.66s14.39,4.77,14.39,15.66-6.84,15.7-14.48,15.7-14.35-4.6-14.35-15.7M471.61,297.14c0-7.05-3.72-11.23-9.5-11.23s-9.62,4.14-9.62,11.23,3.59,11.27,9.54,11.27,9.58-4.05,9.58-11.27"/>
      <polygon class="cls-3" points="490.39 281.82 495.29 281.82 495.29 307.95 508.21 307.95 508.21 312.38 490.39 312.38 490.39 281.82"/>
      <path class="cls-3" d="M518.85,298.11v-16.29h4.9v16.25c0,7.3,2.45,10.26,7.81,10.26s7.81-2.96,7.81-10.22v-16.29h4.9v16.29c0,10.01-4.31,14.69-12.71,14.69s-12.71-4.64-12.71-14.69"/>
      <polygon class="cls-3" points="565.07 286.25 556.8 286.25 556.8 281.82 578.2 281.82 578.2 286.25 569.97 286.25 569.97 312.38 565.07 312.38 565.07 286.25"/>
      <rect class="cls-3" x="591.12" y="281.82" width="4.9" height="30.56"/>
      <path class="cls-3" d="M609.94,297.14c0-10.89,6.8-15.66,14.44-15.66s14.4,4.77,14.4,15.66-6.84,15.7-14.48,15.7-14.35-4.6-14.35-15.7M633.88,297.14c0-7.05-3.72-11.23-9.5-11.23s-9.62,4.14-9.62,11.23,3.59,11.27,9.54,11.27,9.58-4.05,9.58-11.27"/>
      <polygon class="cls-3" points="652.66 281.82 657.6 281.82 673.35 304.87 673.35 281.82 678.25 281.82 678.25 312.38 673.39 312.38 657.56 289.21 657.56 312.38 652.66 312.38 652.66 281.82"/>
      <path class="cls-3" d="M690.95,304.53l4.6-.93c1.27,3.17,4.18,4.94,8.06,4.94,4.22,0,6.63-1.69,6.63-4.6,0-7.22-17.98-2.19-17.98-13.97,0-5.11,4.3-8.61,10.6-8.61s10.38,2.74,11.95,7.85l-4.47.89c-1.31-2.91-3.67-4.39-7.35-4.39s-5.99,1.6-5.99,4.26c0,7.6,18.07,2.03,18.07,13.97,0,5.36-4.48,8.86-11.4,8.86-6.38,0-11.15-3.04-12.71-8.27"/>
      <path class="cls-3" d="M396.45,143.34h20.21l-46.73,110.05c-7.58,18.58-13.35,27.96-32.65,27.96h-15.33v-18.22h14.79c6.5,0,10.28-2.89,13.35-9.74l7.76-18.22-35.9-91.83h20.57l25.62,67.29,28.32-67.29ZM759.29,196.92l2.14-100.49h-19.94l1.75,100.49h16.06ZM563.65,143.34h-46.46v91.11h19.3v-74.33h27.15c8.68,0,16.27,4.35,19.63,13.13,1.03,2.7,1.48,5.59,1.48,8.48v52.72h19.3v-50.88c0-21.14-9.65-40.23-40.41-40.23M751.45,212.62c-7.94,0-12.27,4.33-12.27,11.91s4.33,11.91,12.27,11.91,12.27-4.33,12.27-11.91-4.33-11.91-12.27-11.91M689.22,143.34l-46.56,44.39v-91.3h-19.3v138.01h19.3v-21.67l20.14-19.31,5.53,13.02c7.58,18.58,13.35,27.96,32.65,27.96h14.07v-18.22h-13.53c-6.49,0-10.28-2.89-13.35-9.74l-11.29-26.52,38.17-36.62h-25.83ZM497.89,183.57v50.88h-19.3v-14.14c-6.41,10.8-21.06,16.12-35,16.12-18.4,0-31.75-11.97-31.75-27.31,0-17.68,16.78-31.39,54.48-31.39h11.96c-.24-1.53-.62-3.03-1.17-4.49-3.36-8.77-10.95-13.13-19.63-13.13h-36.35l7.12-16.78h29.23c30.76,0,40.41,19.09,40.41,40.23M478.48,193.68h-11.62c-18.65,0-28.79,2.84-33.36,7.55-3.66,3.77-3.65,9.64.11,13.31,3.17,3.1,8.58,4.69,15.57,4.69,1.73,0,3.41-.1,5.03-.29,13.14-1.56,23.16-12.28,24.27-25.26"/>
      <polygon class="cls-4" points="139.53 180.19 139.53 180.19 159.86 200.51 168.57 209.22 177.28 217.94 181.66 222.32 178.04 218.7 139.53 180.19"/>
      <polygon class="cls-4" points="206.24 281.74 206.24 281.74 177 252.5 178.04 253.54 206.24 281.74"/>
      <path class="cls-1" d="M274.12,148.15c-1.95-4.08-4.22-8.06-6.79-11.88-1.01-1.51-2.08-2.99-3.19-4.45-.11-.14-.21-.29-.32-.43-1.65-2.15-3.42-4.24-5.28-6.28-.93-1.01-1.88-2.02-2.86-3-2.95-2.95-6.05-5.67-9.28-8.15-16.91-13.01-37.21-19.52-57.51-19.52-24.17,0-48.34,9.22-66.78,27.66-7.09,7.09-12.81,15.02-17.17,23.48-4.26,8.26-7.22,17.01-8.89,25.96-1.07,5.73-1.6,11.54-1.6,17.35,0,20.3,6.51,40.6,19.52,57.51,2.48,3.22,5.19,6.32,8.15,9.28,2.95,2.95,6.05,5.67,9.28,8.15.14.11.29.21.43.32,21.68,16.48,48.84,22.35,74.43,17.59l-28.2-28.2-1.04-1.04-17.14-17.14-8.71-8.71-8.71-8.71-28.2-28.2-10.31-10.31,17.42-17.42,1.78,1.78,16.41,16.41,38.51,38.51,3.62,3.62c-.13-2.92-.13-5.84,0-8.76.32-6.97,1.42-13.92,3.27-20.7,4.19-15.28,12.28-29.71,24.29-41.71h0s-20.32-20.33-20.32-20.33h58.07v58.07l-2.14-2.14-18.18-18.18c-5.78,5.78-10.33,12.32-13.65,19.3-12.38,25.94-7.83,57.94,13.65,79.43,1.92,1.92,3.92,3.69,5.99,5.34.52-.27,1.03-.55,1.55-.83,7.72-4.22,14.97-9.59,21.5-16.13,29.09-29.09,35.23-72.42,18.44-107.53"/>
      <path class="cls-6" d="M244.83,186.76l2.14,2.14-2.14-2.14Z"/>
    </g>
    <g class="cls-10">
      <g class="cls-15">
        <rect class="cls-7" x="246.97" y="149.01" width="18.18" height="58.07"/>
      </g>
    </g>
    <g class="cls-13">
      <g class="cls-14">
        <rect class="cls-9" x="200.61" y="168.57" width="44.22" height="104.06"/>
      </g>
    </g>
  </g>
</svg>